<svg id="Layer_1" data-name="Layer 1" xmlns="http://www.w3.org/2000/svg" viewBox="0 -20 498.73 365">
  <g fill="#FFFFFF">
    <path d="M.87,274.68V95.93H39.18V163.6L101,95.93h47L82.33,166.67l67.93,108H103.53L55,196.29,39.18,213.4v61.28Z"></path>
    <path d="M231.21,277.75Q204.9,277.75,185,266a83.43,83.43,0,0,1-31.29-32.56q-11.35-20.81-11.36-48.13t11.36-48.14A83.56,83.56,0,0,1,185,104.61q19.9-11.73,46.22-11.74t46.34,11.74A83.17,83.17,0,0,1,309,137.17q11.37,20.82,11.37,48.14T309,233.44A83,83,0,0,1,277.55,266Q257.51,277.75,231.21,277.75Zm0-34.48q15.57,0,26.68-7.15a47.31,47.31,0,0,0,17.24-20q6.12-12.9,6.13-30.77t-6.13-30.77a46.51,46.51,0,0,0-17.24-19.92q-11.12-7-26.68-7-15.08,0-26.31,7a46.17,46.17,0,0,0-17.36,19.92q-6.14,12.9-6.13,30.77t6.13,30.77a47,47,0,0,0,17.36,20Q216.14,243.27,231.21,243.27Z"></path>
    <path d="M453,95.93,401.44,203.44,349.34,95.93h-46v9.84a99.57,99.57,0,0,1,18.51,24.34c8.74,16,13.17,34.58,13.17,55.2s-4.43,39.19-13.17,55.19a99.62,99.62,0,0,1-18.51,24.35v9.83h38.3V160.28l44.18,89.38h30.39l44.17-89.38v114.4h38.31V95.93Z"></path>

    <path d="M0.87,86.1 L249.37,24.37 L497.86,86.1 L497.86,62.01 L440,47.6 L440,4 L452,4 L452,-18 L376,-18 L376,4 L386,4 L386,34.1 L249.37,0 L0.87,62.01 Z"></path>

    <g id="usa" transform="translate(249.37 340) scale(1.5) translate(-231.21 -321.28)">
      <path transform="translate(155.13 0)" d="M43,321.28a13.89,13.89,0,0,1-6.22-1.38,10.54,10.54,0,0,1-4.45-4.13,13.62,13.62,0,0,1-1.64-7V289.63h6v19.16a8.76,8.76,0,0,0,.78,3.89A5.08,5.08,0,0,0,39.72,315a8.28,8.28,0,0,0,6.93,0,5,5,0,0,0,2.21-2.33,9.06,9.06,0,0,0,.75-3.89V289.63h6v19.11a13.24,13.24,0,0,1-1.69,7,10.67,10.67,0,0,1-4.55,4.13A14.47,14.47,0,0,1,43,321.28Z"></path>
      <path transform="translate(-258.4 0)" d="M487.7,321.28a14.9,14.9,0,0,1-6-1.16,9.47,9.47,0,0,1-4.16-3.38,9.9,9.9,0,0,1-1.6-5.38h6.36a5.12,5.12,0,0,0,.71,2.49,4.75,4.75,0,0,0,1.85,1.76,5.76,5.76,0,0,0,2.82.65,6,6,0,0,0,2.47-.47,4,4,0,0,0,1.64-1.31,3.38,3.38,0,0,0,.6-2,3.66,3.66,0,0,0-.66-2.23,5.66,5.66,0,0,0-1.83-1.51,18.2,18.2,0,0,0-2.64-1.13c-1-.34-2-.71-3.09-1.09a13.74,13.74,0,0,1-5.6-3.22,7.25,7.25,0,0,1-1.91-5.27,8.14,8.14,0,0,1,5.06-7.87,14.57,14.57,0,0,1,11,0,9,9,0,0,1,3.77,3.14,8.75,8.75,0,0,1,1.49,4.8h-6.44a4,4,0,0,0-.6-1.94,4.24,4.24,0,0,0-1.54-1.46,4.59,4.59,0,0,0-2.31-.56,4.86,4.86,0,0,0-2.11.36,3.3,3.3,0,0,0-1.49,1.17,3.41,3.41,0,0,0-.53,1.94,3.22,3.22,0,0,0,.53,1.87,4.66,4.66,0,0,0,1.51,1.31,14.37,14.37,0,0,0,2.31,1c.89.31,1.86.63,2.89.95a26.42,26.42,0,0,1,4.29,1.89,8.88,8.88,0,0,1,3.09,2.83,8.11,8.11,0,0,1,1.16,4.58,8.52,8.52,0,0,1-1.27,4.53,9.25,9.25,0,0,1-3.71,3.38A12.86,12.86,0,0,1,487.7,321.28Z"></path>
      <path transform="translate(-167.58 0)" d="M414.71,320.74l11.34-31.11h6.8l11.33,31.11h-6.35l-8.41-24.27L421,320.74Zm5-7.06,1.6-4.67h15.83l1.55,4.67Z"></path>
    </g>
  </g>
</svg>